<svg xmlns="http://www.w3.org/2000/svg" version="1.1" viewBox="-5.0 -10.0 110.0 135.0">
 <path d="m14.816 18.52c-3.0469 0-5.5547 2.5078-5.5547 5.5547v51.852c0 3.0469 2.5078 5.5547 5.5547 5.5547h70.367c3.0469 0 5.5547-2.5078 5.5547-5.5547l0.003907-51.852c0-3.0469-2.5078-5.5547-5.5547-5.5547zm0 3.7031h70.367c1.043 0 1.8516 0.80859 1.8516 1.8516v0.69922l-29.207 25.945c-1.4453 1.2852-3.3125 1.9922-5.2461 1.9922h-5.1641c-1.9336 0-3.7969-0.70703-5.2422-1.9922l-29.211-25.945v-0.69922c0-1.043 0.80859-1.8516 1.8516-1.8516zm-1.8516 7.5 22.828 20.277-22.828 20.281zm74.074 0-0.003906 40.559-22.824-20.277zm-48.457 22.754 1.1367 1.0117c2.1211 1.8828 4.8594 2.9297 7.6992 2.9297h5.1641c2.8398 0 5.582-1.0469 7.7031-2.9297l1.1367-1.0117 25.613 22.754v0.69531c0 1.043-0.80859 1.8516-1.8516 1.8516h-70.367c-1.043 0-1.8516-0.80859-1.8516-1.8516v-0.69531z"/>
<text x="0.0" y="117.5" font-size="5.0" font-weight="bold" font-family="Arbeit Regular, Helvetica, Arial-Unicode, Arial, Sans-serif" fill="#000000">Created by Graphtend</text><text x="0.0" y="122.5" font-size="5.0" font-weight="bold" font-family="Arbeit Regular, Helvetica, Arial-Unicode, Arial, Sans-serif" fill="#000000">from Noun Project</text></svg>