<svg xmlns="http://www.w3.org/2000/svg" data-name="Layer 2" viewBox="0 0 100 125" x="0px" y="0px"><path d="M21.3870968,34.8124437v30.3753053c0,7.414508,6.0106463,13.4251542,13.4251542,13.4251542h30.375498c7.414508,0,13.4251542-6.0106463,13.4251542-13.4251542v-30.3753053c0-7.4146144-6.0107326-13.425347-13.4253469-13.425347h-30.3751125c-7.4146144,0-13.425347,6.0107326-13.425347,13.4253469Zm5.2590456,1.1612863c0-5.1514844,4.1761033-9.3275877,9.3275877-9.3275877h28.0527224c5.1513837,0,9.3274052,4.1760216,9.3274052,9.3274052v28.0529048c0,5.1513837-4.1760216,9.3274052-9.3274052,9.3274052h-28.0527224c-5.1514844,0-9.3275877-4.1761033-9.3275877-9.3275877v-28.0525399Zm15.2723786,14.02627c0,4.4561177,3.6253613,8.081479,8.081479,8.081479s8.081479-3.6253613,8.081479-8.081479c0-4.4561177-3.6253613-8.081479-8.081479-8.081479s-8.081479,3.6253613-8.081479,8.081479Zm-4.7563704,0c0-7.0789436,5.7589059-12.8378494,12.8378494-12.8378494,7.0789436,0,12.8378494,5.7589059,12.8378494,12.8378494s-5.7589059,12.8378494-12.8378494,12.8378494c-7.0789436,0-12.8378494-5.7589059-12.8378494-12.8378494Zm27.5538443-17.7880612c1.8440621,0,3.3387326,1.4948233,3.3387326,3.3387835,0,1.8440111-1.4946705,3.3388345-3.3387326,3.3388345-1.8439602,0-3.3388345-1.4948233-3.3388345-3.3388345,0-1.8439602,1.4948743-3.3387835,3.3388345-3.3387835Z" fill-rule="evenodd"/>></svg>
